<svg xmlns="http://www.w3.org/2000/svg" width="18" height="18" viewBox="0 0 18 18">
  <defs>
    <style>
      .cls-1 {
        fill: #a0a0a0;
        fill-rule: evenodd;
      }
    </style>
  </defs>
  <g id="I_C_O_N_S" data-name="I C O N S">
    <path class="cls-1" d="M9,17a8,8,0,1,1,8-8A8,8,0,0,1,9,17ZM5.879,7.511a.77.77,0,0,0,0,1.539l1.932.015a15.864,15.864,0,0,1-.139,1.794l-1,2.77a.766.766,0,1,0,1.439.523l.847-2.793L9.8,14.152a.766.766,0,1,0,1.439-.523l-1-2.77a14.694,14.694,0,0,1-.123-1.794l1.916-.015a.77.77,0,1,0,0-1.539ZM7.418,5.2a1.54,1.54,0,1,0,1.54-1.539A1.544,1.544,0,0,0,7.418,5.2Z"/>
  </g>
</svg>
